<svg xmlns="http://www.w3.org/2000/svg" xmlns:xlink="http://www.w3.org/1999/xlink" width="500" zoomAndPan="magnify" viewBox="0 0 375 374.999991" height="500" preserveAspectRatio="xMidYMid meet" version="1.0"><defs><g/><clipPath id="0ae4005d27"><path d="M 0 0 L 112.5 0 L 112.5 112.5 L 0 112.5 Z M 0 0 " clip-rule="nonzero"/></clipPath><clipPath id="976785edab"><path d="M 262.5 0 L 375 0 L 375 112.5 L 262.5 112.5 Z M 262.5 0 " clip-rule="nonzero"/></clipPath><clipPath id="058f521da8"><path d="M 0 262.5 L 112.5 262.5 L 112.5 375 L 0 375 Z M 0 262.5 " clip-rule="nonzero"/></clipPath><clipPath id="a8f954fc92"><path d="M 262.5 262.5 L 375 262.5 L 375 375 L 262.5 375 Z M 262.5 262.5 " clip-rule="nonzero"/></clipPath><clipPath id="f49ac9209e"><path d="M 148.792969 131.25 L 226.207031 131.25 L 226.207031 243.75 L 148.792969 243.75 Z M 148.792969 131.25 " clip-rule="nonzero"/></clipPath></defs><g clip-path="url(#0ae4005d27)"><path fill="#132a13" d="M 0 0 L 112.5 0 L 112.5 112.5 L 0 112.5 Z M 0 0 " fill-opacity="1" fill-rule="nonzero"/></g><g clip-path="url(#976785edab)"><path fill="#132a13" d="M 262.5 0 L 375 0 L 375 112.5 L 262.5 112.5 Z M 262.5 0 " fill-opacity="1" fill-rule="nonzero"/></g><g clip-path="url(#058f521da8)"><path fill="#132a13" d="M 0 262.5 L 112.5 262.5 L 112.5 375 L 0 375 Z M 0 262.5 " fill-opacity="1" fill-rule="nonzero"/></g><g clip-path="url(#a8f954fc92)"><path fill="#132a13" d="M 262.5 262.5 L 375 262.5 L 375 375 L 262.5 375 Z M 262.5 262.5 " fill-opacity="1" fill-rule="nonzero"/></g><path stroke-linecap="butt" transform="matrix(0.75, 0, 0, 0.75, 0.0000045, 0)" fill="none" stroke-linejoin="miter" d="M -0.000006 2 L 500.000027 2 " stroke="#132a13" stroke-width="4" stroke-opacity="1" stroke-miterlimit="4"/><path stroke-linecap="butt" transform="matrix(0.75, 0, 0, 0.75, 0.0000045, 371.999976)" fill="none" stroke-linejoin="miter" d="M -0.000006 2.000033 L 500.000027 2.000033 " stroke="#132a13" stroke-width="4" stroke-opacity="1" stroke-miterlimit="4"/><path stroke-linecap="butt" transform="matrix(0, 0.75, -0.75, 0, 374.99998, 1.5)" fill="none" stroke-linejoin="miter" d="M 0.000000131333 1.999973 L 500.000033 1.999973 " stroke="#132a13" stroke-width="4" stroke-opacity="1" stroke-miterlimit="4"/><g clip-path="url(#f49ac9209e)"><path fill="#132a13" d="M 148.792969 131.25 L 226.207031 131.25 L 226.207031 243.738281 L 148.792969 243.738281 Z M 148.792969 131.25 " fill-opacity="1" fill-rule="nonzero"/></g><path stroke-linecap="butt" transform="matrix(-0.00174473, 0.749998, -0.749998, -0.00174473, 113.245646, 1.505216)" fill="none" stroke-linejoin="miter" d="M -0.000584425 0.499406 L 214.932292 0.499407 " stroke="#132a13" stroke-width="1" stroke-opacity="1" stroke-miterlimit="4"/><path stroke-linecap="butt" transform="matrix(-0.00174473, 0.749998, -0.749998, -0.00174473, 112.495646, 212.304684)" fill="none" stroke-linejoin="miter" d="M 0.00116582 0.499402 L 214.934042 0.499403 " stroke="#132a13" stroke-width="1" stroke-opacity="1" stroke-miterlimit="4"/><g fill="#132a13" fill-opacity="1"><g transform="translate(83.945185, 167.403491)"><g><path d="M 10.90625 2.078125 L 10.90625 4.921875 L 3.578125 6.71875 L 3.578125 6.84375 L 10.90625 11.0625 L 10.90625 13.90625 L 0 12.09375 L 0 9.859375 L 7.09375 11.03125 L 7.09375 10.9375 L 0.046875 6.953125 L 0.046875 5.421875 L 7.125 3.78125 L 7.125 3.703125 L 0 2.5 L 0 0.265625 Z M 10.90625 2.078125 "/></g></g></g><g fill="#132a13" fill-opacity="1"><g transform="translate(83.945185, 181.125036)"><g><path d="M 0 2.140625 L 0 -0.328125 L 10.90625 5.25 L 10.90625 8.21875 L 0 10.171875 L 0 7.703125 L 2.484375 7.3125 L 2.484375 3.375 Z M 4.28125 4.25 L 4.28125 7.03125 L 8.421875 6.375 L 8.421875 6.296875 Z M 4.28125 4.25 "/></g></g></g><g fill="#132a13" fill-opacity="1"><g transform="translate(83.945185, 192.343038)"><g><path d="M 10.90625 4.390625 L 0 2.578125 L 0 0.265625 L 10.90625 2.078125 Z M 10.90625 4.390625 "/></g></g></g><g fill="#132a13" fill-opacity="1"><g transform="translate(83.945185, 196.551121)"><g><path d="M 10.90625 11.203125 L 0 9.390625 L 0 7.40625 L 6.859375 3.796875 L 6.859375 3.71875 L 0 2.578125 L 0 0.265625 L 10.90625 2.078125 L 10.90625 4.109375 L 4.046875 7.6875 L 4.046875 7.765625 L 10.90625 8.90625 Z M 10.90625 11.203125 "/></g></g></g><g fill="#132a13" fill-opacity="1"><g transform="translate(69.695186, 146.040211)"><g><path d="M 0 0.265625 L 10.90625 2.078125 L 10.90625 9.421875 L 9 9.109375 L 9 4.0625 L 6.40625 3.640625 L 6.40625 8.296875 L 4.5 7.984375 L 4.5 3.3125 L 1.90625 2.890625 L 1.90625 7.953125 L 0 7.640625 Z M 0 0.265625 "/></g></g></g><g fill="#132a13" fill-opacity="1"><g transform="translate(69.695186, 155.228752)"><g><path d="M 10.90625 11.203125 L 0 9.390625 L 0 7.40625 L 6.859375 3.796875 L 6.859375 3.71875 L 0 2.578125 L 0 0.265625 L 10.90625 2.078125 L 10.90625 4.109375 L 4.046875 7.6875 L 4.046875 7.765625 L 10.90625 8.90625 Z M 10.90625 11.203125 "/></g></g></g><g fill="#132a13" fill-opacity="1"><g transform="translate(69.695186, 166.254996)"><g><path d="M 9 1.34375 L 10.90625 1.65625 L 10.90625 10.625 L 9 10.296875 L 9 6.96875 L 0 5.46875 L 0 3.1875 L 9 4.6875 Z M 9 1.34375 "/></g></g></g><g fill="#132a13" fill-opacity="1"><g transform="translate(69.695186, 176.279825)"><g><path d="M 0 0.265625 L 10.90625 2.078125 L 10.90625 6.375 C 10.90625 7.613281 10.582031 8.519531 9.9375 9.09375 C 9.289062 9.675781 8.425781 9.878906 7.34375 9.703125 C 6.601562 9.578125 5.96875 9.300781 5.4375 8.875 C 4.90625 8.457031 4.503906 7.914062 4.234375 7.25 L 0 8.875 L 0 6.328125 L 3.875 4.890625 L 3.875 3.21875 L 0 2.578125 Z M 5.71875 3.53125 L 5.71875 5.09375 C 5.71875 6.40625 6.257812 7.148438 7.34375 7.328125 C 8.46875 7.503906 9.03125 6.941406 9.03125 5.640625 L 9.03125 4.078125 Z M 5.71875 3.53125 "/></g></g></g><g fill="#132a13" fill-opacity="1"><g transform="translate(69.695186, 186.214097)"><g><path d="M 0 2.140625 L 0 -0.328125 L 10.90625 5.25 L 10.90625 8.21875 L 0 10.171875 L 0 7.703125 L 2.484375 7.3125 L 2.484375 3.375 Z M 4.28125 4.25 L 4.28125 7.03125 L 8.421875 6.375 L 8.421875 6.296875 Z M 4.28125 4.25 "/></g></g></g><g fill="#132a13" fill-opacity="1"><g transform="translate(69.695186, 197.432099)"><g><path d="M 10.90625 11.203125 L 0 9.390625 L 0 7.40625 L 6.859375 3.796875 L 6.859375 3.71875 L 0 2.578125 L 0 0.265625 L 10.90625 2.078125 L 10.90625 4.109375 L 4.046875 7.6875 L 4.046875 7.765625 L 10.90625 8.90625 Z M 10.90625 11.203125 "/></g></g></g><g fill="#132a13" fill-opacity="1"><g transform="translate(69.695186, 208.458343)"><g><path d="M 7.09375 11.0625 L 7.09375 8.75 C 7.695312 8.769531 8.164062 8.601562 8.5 8.25 C 8.84375 7.90625 9.015625 7.429688 9.015625 6.828125 C 9.015625 5.953125 8.691406 5.191406 8.046875 4.546875 C 7.398438 3.910156 6.488281 3.492188 5.3125 3.296875 C 4.175781 3.117188 3.320312 3.222656 2.75 3.609375 C 2.175781 4.003906 1.890625 4.597656 1.890625 5.390625 C 1.890625 6.046875 2.050781 6.625 2.375 7.125 C 2.695312 7.632812 3.148438 7.988281 3.734375 8.1875 L 3.734375 10.515625 C 3.066406 10.316406 2.4375 9.976562 1.84375 9.5 C 1.25 9.019531 0.765625 8.421875 0.390625 7.703125 C 0.0234375 6.984375 -0.15625 6.171875 -0.15625 5.265625 C -0.15625 4.273438 0.0703125 3.421875 0.53125 2.703125 C 0.988281 1.992188 1.644531 1.484375 2.5 1.171875 C 3.351562 0.867188 4.382812 0.8125 5.59375 1 C 6.757812 1.195312 7.75 1.582031 8.5625 2.15625 C 9.382812 2.726562 10.003906 3.421875 10.421875 4.234375 C 10.847656 5.046875 11.0625 5.921875 11.0625 6.859375 C 11.0625 7.734375 10.90625 8.488281 10.59375 9.125 C 10.28125 9.769531 9.828125 10.257812 9.234375 10.59375 C 8.648438 10.9375 7.9375 11.09375 7.09375 11.0625 Z M 7.09375 11.0625 "/></g></g></g><g fill="#132a13" fill-opacity="1"><g transform="translate(69.695186, 219.740271)"><g><path d="M 0 0.265625 L 10.90625 2.078125 L 10.90625 9.421875 L 9 9.109375 L 9 4.0625 L 6.40625 3.640625 L 6.40625 8.296875 L 4.5 7.984375 L 4.5 3.3125 L 1.90625 2.890625 L 1.90625 7.953125 L 0 7.640625 Z M 0 0.265625 "/></g></g></g></svg>